<svg xmlns="http://www.w3.org/2000/svg" width="54.5" height="54.5" viewBox="0 0 54.5 54.5">
  <g id="Happy" transform="translate(-189 -401)">
    <g id="Ellipse_3" data-name="Ellipse 3" transform="translate(189 401)" fill="#fff" stroke="#000" stroke-width="2">
      <circle cx="27.25" cy="27.25" r="27.25" stroke="none"/>
      <circle cx="27.25" cy="27.25" r="26.25" fill="none"/>
    </g>
    <g id="Ellipse_4" data-name="Ellipse 4" transform="translate(201.717 417.956)" stroke="#000" stroke-width="1">
      <circle cx="5.147" cy="5.147" r="5.147" stroke="none"/>
      <circle cx="5.147" cy="5.147" r="4.647" fill="none"/>
    </g>
    <g id="Ellipse_5" data-name="Ellipse 5" transform="translate(220.489 417.956)" stroke="#000" stroke-width="1">
      <circle cx="5.147" cy="5.147" r="5.147" stroke="none"/>
      <circle cx="5.147" cy="5.147" r="4.647" fill="none"/>
    </g>
    <g id="Path_2" data-name="Path 2" transform="translate(209.589 429.215)" fill="#fff">
      <path d="M 6.661111354827881 15.0960865020752 C 3.833499431610107 15.0960865020752 1.529701232910156 12.81061267852783 1.500288605690002 9.98983097076416 C 1.723487615585327 10.07784080505371 1.968045115470886 10.18233108520508 2.176901340484619 10.27156734466553 C 3.326061248779297 10.76254653930664 4.899881362915039 11.43497657775879 6.661111354827881 11.43497657775879 C 8.422151565551758 11.43497657775879 9.995951652526855 10.76257705688477 11.14510154724121 10.27161693572998 C 11.35401725769043 10.18235969543457 11.59867382049561 10.07783222198486 11.82193470001221 9.989804267883301 C 11.79252147674561 12.81058597564697 9.488722801208496 15.0960865020752 6.661111354827881 15.0960865020752 Z" stroke="none"/>
      <path d="M 9.184938430786133 12.58479404449463 C 8.415470123291016 12.79154682159424 7.570218563079834 12.93497562408447 6.661111354827881 12.93497562408447 C 5.751959800720215 12.93497562408447 4.90675163269043 12.7915563583374 4.137287139892578 12.58479595184326 C 4.794536590576172 13.21102714538574 5.68377685546875 13.59608554840088 6.661111354827881 13.59608554840088 C 7.638445854187012 13.59608554840088 8.527688980102539 13.21102428436279 9.184938430786133 12.58479404449463 M 0.9094381332397461 8.29994010925293 C 2.065557479858398 8.29994010925293 4.20848274230957 9.934975624084473 6.661111354827881 9.934975624084473 C 9.11351490020752 9.934975624084473 11.25658988952637 8.300140380859375 12.41278457641602 8.29994010925293 C 12.99098777770996 8.299840927124023 13.32222175598145 8.708549499511719 13.32222175598145 9.934975624084473 C 13.32222175598145 13.61380577087402 10.33994102478027 16.5960865020752 6.661111354827881 16.5960865020752 C 2.982281684875488 16.5960865020752 9.5367431640625e-07 13.61380577087402 9.5367431640625e-07 9.934975624084473 C 9.5367431640625e-07 8.708774566650391 0.3314313888549805 8.29994010925293 0.9094381332397461 8.29994010925293 Z" stroke="none"/>
    </g>
  </g>
</svg>
